<svg width="324" height="93" viewBox="0 0 324 93" fill="none" xmlns="http://www.w3.org/2000/svg">
<path d="M209.969 0.5C223.21 0.5 233.945 11.2349 233.945 24.4766C233.945 34.8913 227.303 43.7528 218.025 47.0625C219.133 50.5956 220.641 54.1845 221.635 56.2969C213.85 54.5743 207.283 51.4038 202.562 48.4521H24.4766C11.2351 48.4521 0.500261 37.718 0.5 24.4766C0.5 11.2349 11.2349 0.5 24.4766 0.5H209.969Z" fill="white"/>
<path d="M233.945 24.4766L234.445 24.4766V24.4766H233.945ZM218.025 47.0625L217.857 46.5916L217.404 46.7532L217.548 47.2121L218.025 47.0625ZM221.635 56.2969L221.527 56.7851L222.521 57.005L222.087 56.0839L221.635 56.2969ZM202.562 48.4521L202.827 48.0282L202.705 47.9521H202.562V48.4521ZM0.5 24.4766H0V24.4766L0.5 24.4766ZM209.969 0.5V1C222.934 1 233.445 11.5111 233.445 24.4766H233.945H234.445C234.445 10.9588 223.487 0 209.969 0V0.5ZM233.945 24.4766L233.445 24.4766C233.445 34.6732 226.943 43.3506 217.857 46.5916L218.025 47.0625L218.193 47.5334C227.664 44.155 234.445 35.1094 234.445 24.4766L233.945 24.4766ZM218.025 47.0625L217.548 47.2121C218.665 50.7715 220.181 54.3818 221.182 56.5098L221.635 56.2969L222.087 56.0839C221.1 53.9871 219.602 50.4197 218.502 46.9129L218.025 47.0625ZM221.635 56.2969L221.743 55.8087C214.025 54.1008 207.511 50.9563 202.827 48.0282L202.562 48.4521L202.296 48.8761C207.056 51.8514 213.676 55.0477 221.527 56.7851L221.635 56.2969ZM202.562 48.4521V47.9521H24.4766V48.4521V48.9521H202.562V48.4521ZM24.4766 48.4521V47.9521C11.5112 47.9521 1.00026 37.4418 1 24.4766L0.5 24.4766L0 24.4766C0.000266254 37.9941 10.959 48.9521 24.4766 48.9521V48.4521ZM0.5 24.4766H1C1 11.5111 11.5111 1 24.4766 1V0.5V0C10.9588 0 0 10.9588 0 24.4766H0.5ZM24.4766 0.5V1H209.969V0.5V0H24.4766V0.5Z" fill="#AEC5E7"/>
<g clip-path="url(#clip0_162_4407)">
<path d="M279.092 13.8459C266.749 18.6749 258.986 40.012 265.356 51.6844C272.919 65.7746 292.429 68.7911 304.971 59.735C315.125 52.4881 319.107 31.3561 312.139 20.6892C307.163 13.2406 297.408 10.0191 288.647 10.6243C286.259 10.8261 283.472 11.2296 281.48 13.0389" fill="#002E6E"/>
<path d="M278.827 12.8674C272.922 15.2555 268.689 20.4185 265.889 26.0414C262.981 31.8892 261.404 38.8317 262.33 45.3675C264.309 59.365 278.932 67.0783 291.906 65.7156C298.311 65.0441 304.847 62.2393 309.103 57.2383C313.444 52.138 315.606 45.3212 316.395 38.7358C317.154 32.3754 316.441 25.1715 312.744 19.7835C308.373 13.4264 300.715 10.3239 293.319 9.64583C289.122 9.26216 284.143 9.47053 280.773 12.3216C279.779 13.1618 281.208 14.5906 282.193 13.7571C285.337 11.0979 290.427 11.3591 294.261 11.7693C298.295 12.2026 302.243 13.5818 305.671 15.7615C312.064 19.8232 314.52 26.7426 314.632 34.0821C314.739 41.0809 312.813 48.3807 308.903 54.1854C305.02 59.9472 298.203 63.0265 291.494 63.731C279.606 64.9813 266.327 57.8965 264.319 45.2054C263.373 39.2352 264.917 32.8252 267.443 27.4405C269.906 22.1914 273.884 17.0382 279.36 14.8222C280.548 14.3426 280.028 12.3779 278.827 12.8674Z" fill="#002E6E"/>
<path d="M257.586 65.027C261.574 67.4349 266.547 66.2178 270.927 66.2078C274.908 66.1979 279.092 68.4041 283.273 67.1902L280.289 68.0005C281.503 76.6531 292.851 77.4337 299.816 76.415C304.592 75.6013 309.365 73.7788 312.744 70.3522C314.73 68.3346 318.106 63.2972 315.116 60.886L313.539 61.144C315.132 60.7404 319.908 58.9312 318.914 55.9114C318.315 53.8971 313.14 52.6898 311.151 52.4881C311.151 52.4881 292.835 75.6344 265.366 52.0846C264.152 51.0427 262.778 51.0791 261.384 50.272C260.19 49.4683 258.797 48.863 257.802 47.8575C256.409 46.6502 256.01 44.034 254.616 42.8267C251.829 40.614 251.034 45.2412 251.234 48.0593C251.433 50.6755 252.827 52.6898 254.616 54.4991L253.023 53.4936C244.661 50.272 241.279 61.5442 248.443 66.3765C260.187 74.2254 259.988 55.5079 250.432 56.9169" fill="#002E6E"/>
<path d="M257.079 65.9037C260.91 68.0635 265.192 67.4946 269.389 67.2664C274.175 67.0051 278.771 69.3799 283.538 68.1661C283.361 67.5145 283.181 66.8596 283.004 66.208C282.01 66.4792 281.015 66.7471 280.018 67.0183C279.449 67.1738 279.229 67.7228 279.318 68.2686C280.845 77.8175 293.126 78.6312 300.607 77.2949C306.407 76.2597 312.086 73.5475 315.466 68.52C316.706 66.6777 317.661 64.3624 317.111 62.1198C316.918 61.3359 316.192 60.1287 315.374 59.9005C314.766 59.7318 313.869 60.0592 313.264 60.1585C313.441 60.81 313.621 61.4649 313.797 62.1165C315.979 61.5344 319.182 60.218 319.872 57.7803C320.746 54.6944 317.85 53.239 315.44 52.4055C314.252 51.9954 311.272 50.7815 310.274 51.959C309.636 52.7131 308.93 53.4077 308.207 54.0792C305.112 56.9435 301.396 59.1397 297.401 60.4297C291.209 62.4308 284.686 61.7494 278.699 59.368C273.861 57.443 269.998 54.2776 265.863 51.2049C265.038 50.593 264.158 50.2589 263.193 49.9447C261.891 49.5214 260.71 48.6978 259.556 47.9734C257.514 46.6934 257.289 44.4542 255.859 42.7012C255.051 41.7089 253.743 40.8655 252.447 41.4046C251.129 41.9537 250.654 43.5148 250.402 44.8081C249.611 48.8698 251.109 52.3295 253.896 55.2137C254.302 54.6811 254.708 54.1519 255.113 53.6194C252.997 52.2832 250.841 51.4993 248.315 52.1674C245.957 52.7925 244.37 54.9292 243.772 57.218C242.296 62.8607 247.069 68.2289 252.372 69.2079C256.415 69.9521 258.797 66.4296 258.378 62.6689C257.92 58.5543 254.632 55.3592 250.425 55.895C249.159 56.0571 249.143 58.0879 250.425 57.9259C253.54 57.5256 255.741 59.4837 256.337 62.5068C256.808 64.8949 255.673 67.6402 252.902 67.2499C248.652 66.6479 244.861 62.4837 245.639 58.0549C245.957 56.2489 247.098 54.6944 248.845 54.1255C250.789 53.4904 252.503 54.3669 254.096 55.3724C255.08 55.9942 256.101 54.5918 255.313 53.7782C253.746 52.1575 252.473 50.3681 252.221 48.0561C252.074 46.6769 252.11 44.5302 253.029 43.4057C253.883 42.3638 255.656 46.5479 255.924 47.0506C256.886 48.8764 258.721 49.8356 260.409 50.851C261.299 51.3868 262.176 51.744 263.164 52.0649C264.525 52.5081 265.516 53.5433 266.615 54.4198C268.496 55.9215 270.469 57.2908 272.53 58.5278C275.847 60.5223 279.465 62.0471 283.224 62.9269C292.952 65.2025 302.95 61.9115 310.111 55.0582C310.598 54.5918 311.069 54.1023 311.517 53.5963C311.619 53.4805 311.72 53.3614 311.818 53.2424C311.985 53.0373 311.579 53.55 311.383 53.5268C311.933 53.5896 312.482 53.7186 313.022 53.841C314.389 54.1453 318.315 54.9193 318.017 56.9435C317.749 58.7726 314.753 59.7616 313.261 60.1618C311.982 60.5024 312.544 62.3249 313.794 62.1198C314.321 62.0338 314.844 61.9478 315.371 61.8619C315.044 61.7759 314.72 61.6866 314.393 61.6006C317.435 64.3491 312.364 69.5685 310.215 71.2123C306.613 73.9675 301.909 75.3005 297.46 75.6511C291.402 76.1307 282.442 75.1715 281.251 67.7262C281.019 68.1429 280.783 68.5597 280.551 68.9731C281.545 68.7019 282.54 68.434 283.534 68.1628C284.784 67.8221 284.257 65.8872 283.001 66.2047C278.788 67.2796 274.646 65.143 270.416 65.1926C266.278 65.2422 261.904 66.2973 258.09 64.1441C256.961 63.5123 255.947 65.2653 257.079 65.9037Z" fill="#002E6E"/>
<path d="M281.846 16.5693C270.56 18.9838 266.216 36.1037 268.388 45.7585C270.992 56.9513 283.799 62.0019 293.787 58.7076C299.214 56.9513 305.943 53.2204 308.547 48.173C311.37 42.4675 311.802 33.4676 309.849 27.5438C306.375 17.6674 292.701 11.9586 282.933 15.6895C282.717 15.9078 282.282 16.1294 282.066 16.1294" fill="white"/>
<path d="M281.555 15.5003C269.389 18.2885 264.992 35.2232 267.331 46.0522C268.79 52.8194 274.358 57.7113 280.678 59.7653C287.623 62.0244 294.647 60.2482 300.869 56.7951C303.473 55.3497 305.923 53.4909 307.847 51.1855C309.777 48.8702 310.765 45.9728 311.409 43.0555C312.698 37.2045 312.642 30.1792 309.819 24.778C307.287 19.9357 302.446 16.6281 297.46 14.8222C294.863 13.8796 292.072 13.4364 289.318 13.4297C287.99 13.4264 286.662 13.5918 285.36 13.8399C284.094 14.078 282.968 14.7759 281.778 15.0604C280.404 15.3878 280.986 17.5212 282.36 17.197C283.07 17.0284 283.668 16.5885 284.372 16.3702C285.147 16.1287 285.945 15.9699 286.743 15.8376C288.579 15.5333 290.522 15.5929 292.36 15.8443C295.913 16.3272 299.299 17.7097 302.269 19.7207C305.167 21.6854 307.578 24.5167 308.799 27.8408C310.231 31.7503 310.209 36.4007 309.656 40.4723C309.093 44.62 307.742 48.4005 304.713 51.3377C301.733 54.2218 297.787 56.17 293.921 57.5063C287.332 59.7819 279.668 58.4224 274.388 53.7786C268.64 48.7181 268.202 40.77 269.67 33.6985C271.08 26.9147 274.895 19.3007 282.144 17.6403C283.515 17.3194 282.929 15.186 281.555 15.5003Z" fill="#002E6E"/>
<path d="M281.872 24.3108C281.728 27.367 284.876 29.5434 287.587 29.8973C288.85 30.0627 290.1 29.7749 290.849 28.6669C291.791 27.2711 290.81 25.2502 290.116 23.9999C289.658 24.463 289.2 24.926 288.742 25.3891C290.375 26.6625 292.838 28.1476 294.915 27.1719C297.863 25.786 295.046 22.571 293.1 22.1245C291.84 21.8368 291.304 23.7915 292.566 24.0826C292.936 24.1686 294.562 24.6846 293.914 25.4056C293.643 25.7099 292.776 25.3329 292.485 25.2336C291.506 24.9095 290.564 24.2678 289.756 23.6361C288.912 22.9779 287.931 24.2083 288.382 25.0253C289.243 26.5765 289.782 28.3295 287.427 27.8201C285.818 27.4728 283.796 26.1796 283.884 24.3108C283.94 23.001 281.931 23.0076 281.872 24.3108Z" fill="#002E6E"/>
<path d="M282.01 37.101C282.056 37.1738 282.098 37.2498 282.134 37.3259C282.18 37.4251 282.167 37.3987 282.102 37.2498C282.121 37.3027 282.141 37.3557 282.16 37.4086C282.236 37.617 282.311 37.832 282.432 38.0139C282.811 38.5861 283.407 38.8011 284.071 38.8143C284.333 38.8209 284.598 38.7018 284.781 38.5166C285.059 38.2355 285.092 37.9014 285.039 37.5277C284.957 36.9455 284.889 36.3932 284.493 35.9334C284.156 35.5431 283.61 35.5034 283.145 35.4108C282.785 35.3381 282.435 35.4009 282.167 35.6721C281.928 35.9103 281.787 36.327 281.909 36.6578C282.095 37.1738 282.422 37.7724 282.936 38.0205C283.449 38.2686 284.055 38.1793 284.369 37.6567C284.607 37.2597 284.512 36.8662 284.339 36.4759C284.113 35.9731 283.4 35.854 282.965 36.112C282.458 36.413 282.38 36.9985 282.605 37.5012C282.54 37.3854 282.507 37.2631 282.507 37.1274C282.553 36.9555 282.599 36.7868 282.645 36.6148C282.641 36.6214 282.638 36.6247 282.635 36.628C282.756 36.5056 282.874 36.3866 282.995 36.2642C282.991 36.2675 282.985 36.2675 282.982 36.2708C283.152 36.2245 283.318 36.1782 283.489 36.1319C283.633 36.1716 283.776 36.2079 283.92 36.2476C283.842 36.198 283.875 36.2245 284.015 36.327C283.969 36.2873 283.93 36.241 283.888 36.198C284.061 36.3932 283.911 36.2179 283.878 36.1649C283.852 36.122 283.767 35.8937 283.845 36.1153C283.433 36.5321 283.021 36.9488 282.612 37.3656C282.782 37.3987 282.952 37.4251 283.122 37.4582C283.181 37.4681 283.24 37.4847 283.299 37.5012C283.446 37.5442 283.04 37.3788 283.168 37.445C283.246 37.4847 283.322 37.5839 283.053 37.3491C283.116 37.402 282.893 37.0778 282.998 37.2862C282.828 36.9488 282.955 37.1969 282.982 37.316C283.04 37.5607 283.07 37.8154 283.106 38.0668C283.43 37.6401 283.75 37.2101 284.074 36.7835C284.019 36.7835 283.74 36.7471 284.019 36.7934C283.976 36.7835 283.933 36.7735 283.894 36.7603C284.045 36.8298 284.071 36.8397 283.983 36.7934C284.025 36.8265 284.064 36.8595 284.107 36.8926C284.035 36.8198 284.055 36.8529 284.169 36.9918C284.13 36.9422 284.104 36.8794 284.074 36.8232C284.231 37.1572 284.055 36.7471 284.019 36.6578C283.94 36.4593 283.858 36.2609 283.744 36.079C283.449 35.6126 282.857 35.4274 282.37 35.7151C281.909 35.983 281.716 36.6313 282.01 37.101Z" fill="#002E6E"/>
<path d="M290.829 34.9791C290.823 35.2503 290.885 34.7409 290.826 34.9956C290.81 35.0684 290.787 35.1411 290.767 35.2139C290.712 35.4124 290.663 35.6307 290.685 35.8357C290.79 36.699 291.399 37.0992 292.164 37.3671C292.494 37.4829 292.9 37.3506 293.142 37.1058C293.482 36.7618 293.496 36.2922 293.299 35.8754C293.257 35.7795 293.263 35.8026 293.322 35.9416C293.296 35.8754 293.27 35.806 293.247 35.7365C293.204 35.6174 293.168 35.495 293.136 35.3727C293.103 35.2602 293.077 35.1444 293.051 35.0287C293.038 34.9725 293.028 34.9162 293.018 34.86C293.074 35.1775 293.041 35.0584 293.038 34.9758C293.005 34.1158 291.955 33.5998 291.323 34.258C290.8 34.8038 290.434 35.6406 291.062 36.2789C291.268 36.4873 291.484 36.57 291.745 36.6792C291.971 36.7718 291.513 36.5634 291.729 36.6758C291.752 36.6891 291.775 36.7023 291.798 36.7188C291.749 36.6825 291.703 36.6461 291.654 36.6097C291.543 36.4476 291.513 36.4112 291.565 36.4939C291.84 36.9735 292.468 37.1356 292.939 36.8578C293.414 36.5766 293.574 35.9482 293.299 35.4686C293.07 35.0717 292.72 34.8997 292.318 34.7376C292.158 34.6715 292.563 34.8468 292.413 34.7773C292.39 34.7674 292.37 34.7575 292.351 34.7442C292.465 34.8137 292.557 34.9096 292.622 35.0254C292.733 35.2304 292.763 35.4421 292.704 35.6571C292.622 35.8324 292.606 35.8721 292.661 35.7729C292.717 35.6902 292.704 35.7067 292.625 35.8192C292.665 35.7762 292.704 35.7332 292.746 35.6902C292.174 35.452 291.605 35.2106 291.032 34.9725C291.058 35.624 291.291 36.312 291.569 36.8941C291.945 36.398 292.324 35.8986 292.701 35.4024C292.671 35.3925 292.377 35.2635 292.606 35.3694C292.524 35.333 292.308 35.1511 292.547 35.3561C292.475 35.2801 292.498 35.3131 292.616 35.4554C292.566 35.3661 292.586 35.409 292.671 35.591C292.691 35.7993 292.697 35.8523 292.694 35.7497C292.697 35.6472 292.691 35.7001 292.668 35.9052C292.717 35.5877 292.835 35.3032 292.841 34.9725C292.858 34.4201 292.373 33.957 291.837 33.957C291.274 33.9636 290.846 34.4267 290.829 34.9791Z" fill="#002E6E"/>
<path d="M314.219 45.5166C316.581 46.9356 317.985 50.5441 317.34 53.2265C317.036 54.4999 318.969 55.0391 319.277 53.7657C320.134 50.1968 318.384 45.6555 315.233 43.7636C314.118 43.0922 313.107 44.8485 314.219 45.5166Z" fill="#002E6E"/>
<path d="M289.972 77.7574C291.657 80.2282 294.412 83.4597 297.634 83.4994C301.216 83.5424 301.762 79.4145 302.161 76.7122C302.351 75.4322 300.414 74.8799 300.225 76.1731C299.966 77.9294 299.94 81.2568 297.634 81.4718C295.354 81.6835 292.841 78.3991 291.706 76.7354C290.977 75.6638 289.233 76.6759 289.972 77.7574Z" fill="#002E6E"/>
<path d="M306.257 75.3041C308.992 77.1001 313.146 80.1993 316.048 76.9182C318.066 74.636 317.877 69.9723 316.388 67.4784C315.721 66.3604 313.984 67.3792 314.654 68.5037C315.789 70.4089 315.776 73.518 314.664 75.4199C313.087 78.1188 308.838 74.583 307.271 73.5544C306.182 72.8366 305.174 74.5963 306.257 75.3041Z" fill="#002E6E"/>
<path d="M315.41 63.2718C316.332 64.2145 317.54 64.4295 318.802 64.5122C319.169 64.5353 321.632 64.4361 321.511 65.2795C321.4 66.0535 319.905 66.5 319.313 66.6952C318.498 66.9664 317.438 67.2575 316.584 67.0127C315.338 66.6522 314.808 68.6102 316.051 68.9708C318.249 69.6058 322.116 68.4614 323.248 66.3479C323.948 65.0447 323.081 63.5331 321.864 62.9444C320.359 62.2134 318.05 63.0899 316.83 61.843C315.917 60.9036 314.497 62.3424 315.41 63.2718Z" fill="#002E6E"/>
<path d="M251.158 57.2017C255.679 55.4983 258.139 62.3615 257.115 65.841C256.932 66.4628 257.894 66.7307 258.074 66.1089C259.307 61.9249 256.18 54.2381 250.893 56.2325C250.298 56.4542 250.553 57.4299 251.158 57.2017Z" fill="#F1F2F2"/>
<path d="M292.583 60.5853C291.771 59.8874 290.234 59.1796 289.154 59.4905C288.252 59.7518 287.313 60.9392 288.104 61.829C288.853 62.6724 290.362 62.9337 291.421 62.7253C292.056 62.5996 292.579 62.2788 293.031 61.8157C293.679 61.1542 293.79 60.1421 294.752 59.818C294.565 59.7419 294.375 59.6658 294.189 59.5865C294.699 60.7706 294.434 63.0991 292.779 61.5941C292.543 61.3792 292.164 61.4056 291.997 61.6967C291.199 63.0792 291.134 64.6239 290.934 66.1784C290.862 66.7539 291.765 66.8432 291.912 66.3107C292.004 65.9767 292.02 65.636 292.112 65.3052C292.282 64.6801 291.323 64.4122 291.153 65.0373C291.062 65.3714 291.045 65.7121 290.954 66.0428C291.281 66.0858 291.605 66.1321 291.932 66.1751C292.108 64.8025 292.151 63.4265 292.858 62.2027C292.596 62.2358 292.337 62.2722 292.076 62.3053C292.926 63.0792 294.019 63.5853 294.925 62.6063C295.789 61.6735 295.497 60.1157 295.049 59.0804C294.964 58.8852 294.68 58.786 294.487 58.8489C292.923 59.3748 292.74 61.5743 291.081 61.7595C290.656 61.8058 288.477 61.6636 288.909 60.8169C289.387 59.8775 291.363 60.8566 291.879 61.2998C292.367 61.7165 293.073 61.0087 292.583 60.5853Z" fill="#F1F2F2"/>
<path d="M292.151 62.083C292.629 63.4358 293.46 64.6067 294.193 65.8272C294.526 66.3795 295.387 65.8735 295.053 65.3178C294.369 64.18 293.558 63.0786 293.113 61.8151C292.897 61.2098 291.932 61.4678 292.151 62.083Z" fill="#F1F2F2"/>
<path d="M277.669 58.8797C276.089 61.8168 275.739 66.2423 277.947 68.9479C278.317 69.401 279 68.8222 278.729 68.3393C277.401 65.9645 278.035 63.0737 278.977 60.6757C279.187 60.1432 278.323 59.786 278.068 60.2887C276.756 62.8421 276.02 66.0769 277.669 68.6469C277.921 69.0405 278.631 68.9214 278.595 68.3922C278.389 65.346 278.022 62.0913 279.72 59.3891C280.047 58.8665 279.35 58.4497 278.938 58.7805C276.743 60.5235 276.177 63.9833 277.466 66.4342C277.767 67.0064 278.627 66.5003 278.326 65.9248C277.231 63.8377 277.803 60.9502 279.641 59.4883C279.38 59.2832 279.121 59.0814 278.86 58.8797C277.057 61.744 277.378 65.1574 277.597 68.3922C277.908 68.3062 278.215 68.2235 278.523 68.1375C277.07 65.8752 277.77 63.034 278.922 60.7948C278.618 60.6658 278.317 60.5368 278.012 60.4078C276.969 63.0671 276.4 66.2357 277.862 68.8454C278.124 68.6436 278.382 68.4385 278.644 68.2368C276.74 65.9049 277.178 61.8896 278.523 59.3857C278.833 58.8168 277.973 58.3075 277.669 58.8797Z" fill="#F1F2F2"/>
<path d="M310.713 52.2333C309.662 54.1484 309.597 56.4901 310.356 58.521C311.184 60.7337 312.898 61.4448 315.073 61.4448C315.714 61.4448 315.714 60.4393 315.073 60.4393C311.141 60.4393 309.299 55.4416 310.775 52.3391C310.47 52.2101 310.17 52.0811 309.865 51.9522C309.764 52.6368 309.797 53.2024 309.849 53.897C309.895 54.542 310.892 54.5453 310.843 53.897C310.781 53.338 310.778 52.779 310.827 52.2201C310.902 51.7041 310.183 51.2741 309.918 51.8331C308.125 55.6037 310.343 61.4448 315.076 61.4448C315.718 61.4448 315.718 60.4393 315.076 60.4393C313.153 60.4393 311.92 59.8539 311.203 57.9421C310.585 56.295 310.735 54.2774 311.576 52.746C311.884 52.1738 311.023 51.6677 310.713 52.2333Z" fill="#F1F2F2"/>
<path d="M287.571 69.1298C287.813 70.7042 288.902 72.5763 290.388 73.2543C290.967 73.5189 291.474 72.6523 290.891 72.3844C289.612 71.799 288.739 70.2081 288.533 68.8619C288.431 68.2202 287.473 68.4947 287.571 69.1298Z" fill="#F1F2F2"/>
<path d="M288.847 71.3082C289.802 71.3082 290.758 71.3148 291.7 71.4901C292.328 71.6092 292.596 70.6368 291.965 70.521C290.931 70.3292 289.894 70.3027 288.847 70.3027C288.206 70.3027 288.206 71.3082 288.847 71.3082Z" fill="#F1F2F2"/>
<path d="M276.468 46.0587C279.144 46.0587 281.313 43.8656 281.313 41.1602C281.313 38.4548 279.144 36.2617 276.468 36.2617C273.793 36.2617 271.624 38.4548 271.624 41.1602C271.624 43.8656 273.793 46.0587 276.468 46.0587Z" fill="#AEC5E7"/>
<path d="M305.004 36.9337C305.004 39.6392 302.835 41.8321 300.159 41.8321C297.483 41.8321 295.314 39.6392 295.314 36.9337C295.314 34.2281 297.483 32.0352 300.159 32.0352C302.835 32.0352 305.004 34.2281 305.004 36.9337Z" fill="#AEC5E7"/>
<path d="M290.957 69.1294C291.232 70.072 291.589 70.9981 292.047 71.868C292.387 72.513 292.855 73.2374 293.627 73.3234C294.264 73.3961 294.258 72.3873 293.627 72.3179C293.254 72.2749 292.861 71.2793 292.72 71.0015C292.383 70.3201 292.128 69.5924 291.916 68.8648C291.736 68.2396 290.774 68.5042 290.957 69.1294Z" fill="#F1F2F2"/>
<path d="M297.009 67.2837C295.603 67.3366 294.386 67.9618 293.473 69.04C293.257 69.2914 293.29 69.6453 293.574 69.8305C294.552 70.4722 296.067 70.3763 297.169 70.7004C297.519 70.803 298.805 71.3652 298.043 71.8878C297.441 72.3013 296.204 72.1227 295.55 71.9308C294.932 71.7489 294.67 72.718 295.285 72.8999C296.633 73.3002 300.271 73.0885 299.034 70.7533C298.121 69.0301 295.436 69.8537 294.078 68.9606C294.111 69.2253 294.147 69.4866 294.179 69.7512C294.922 68.8747 295.858 68.3322 297.012 68.2892C297.65 68.2661 297.65 67.2573 297.009 67.2837Z" fill="#F1F2F2"/>
<path d="M298.919 67.1144C299.364 69.433 301.422 72.3701 304.055 71.047C306.152 69.9919 305.563 66.7836 303.833 65.7417C303.28 65.411 302.779 66.2808 303.329 66.6116C304.539 67.3393 304.873 69.3668 303.551 70.1805C301.644 71.3513 300.153 68.2786 299.878 66.8497C299.757 66.2114 298.795 66.4793 298.919 67.1144Z" fill="#F1F2F2"/>
<path d="M277.031 41.7293C280.161 45.8274 286.184 44.3489 289.557 41.3324C289.082 41.3324 288.611 41.3324 288.137 41.3324C292.115 44.6102 298.998 42.8737 300.365 37.6643C300.699 36.3975 298.762 35.8617 298.428 37.1252C297.477 40.747 292.409 42.2486 289.557 39.8969C289.112 39.5298 288.579 39.5 288.137 39.8969C285.876 41.9179 281.019 43.6543 278.765 40.7073C277.986 39.6852 276.239 40.6941 277.031 41.7293Z" fill="#002E6E"/>
<path d="M244.145 37.3067C244.946 38.3089 245.846 39.2019 246.935 39.88C248.041 40.568 249.048 38.8116 247.949 38.127C247.007 37.5382 246.258 36.7378 245.564 35.8712C245.221 35.4412 244.501 35.5107 244.145 35.8712C243.726 36.2913 243.798 36.8767 244.145 37.3067Z" fill="#AEC5E7"/>
<path d="M249.46 33.6388C249.67 34.4856 249.892 35.3522 250.357 36.0964C251.047 37.1978 252.784 36.1824 252.09 35.071C251.714 34.4723 251.564 33.7811 251.394 33.0997C251.08 31.8296 249.143 32.3687 249.46 33.6388Z" fill="#AEC5E7"/>
<path d="M254.999 33.569C254.979 34.1974 254.672 34.7531 254.338 35.2691C253.628 36.3705 255.368 37.3859 256.072 36.2944C256.602 35.4708 256.975 34.558 257.004 33.569C257.043 32.2592 255.038 32.2625 254.999 33.569Z" fill="#AEC5E7"/>
</g>
<defs>
<clipPath id="clip0_162_4407">
<rect width="80" height="74" fill="white" transform="translate(243.5 9.5)"/>
</clipPath>
</defs>
</svg>
