<svg width="40" height="19" viewBox="0 0 40 19" fill="none" xmlns="http://www.w3.org/2000/svg">
<path d="M13.6523 19.0004V18.9941L12.5898 19.0004H13.6523Z" fill="#002E6E"/>
<path d="M18.5003 11.7083L17.6028 11.3022C17.3891 11.196 16.632 10.8774 15.9664 10.3588C15.8565 10.2776 15.7527 10.1901 15.6489 10.1089C13.8844 8.61569 13.6707 6.75385 13.6707 5.71047C13.6707 4.17352 14.1897 2.69904 15.1361 1.59319C15.3009 1.3995 15.4719 1.23082 15.6489 1.06837C16.174 0.593543 16.7297 0.256164 17.2792 0.0249965L15.6489 0.0187521V0H10.3309V6.78509H5.29365V0H0V18.9932H5.29365V11.3272H10.3309V18.9932H12.4618H12.5839H13.6463L13.6707 14.2449C13.8844 14.4324 14.092 14.651 14.3301 14.8072C14.495 14.9259 14.9834 15.2071 15.6489 15.3945C16.3206 15.5882 17.1815 15.6882 18.079 15.4383C18.2195 15.4008 19.5139 15.1384 20.0817 14.2887C20.1489 14.1887 20.2221 13.9138 20.2221 13.5577C20.2221 13.4515 20.2221 13.2078 20.1305 12.9392C19.8497 12.2207 19.0926 11.952 18.5003 11.7083Z" fill="#002E6E"/>
<path d="M34.2653 0.039457V10.9356C34.2653 11.5229 34.2653 11.9852 34.1188 12.5475C34.0699 12.7849 33.9539 13.191 33.5937 13.6783C33.2396 14.1344 32.6961 14.6155 31.5361 14.6155C29.8081 14.6155 29.1426 13.5659 28.8862 12.7349C28.6786 12.0602 28.6542 11.3604 28.6542 9.90469V0.0332031H24.6671V0.0581996V5.00018C24.429 4.78151 24.197 4.56909 23.9589 4.38166C23.7452 4.22547 23.3422 3.9943 22.8293 3.81311C22.1943 3.58194 21.3945 3.4195 20.6191 3.5632C20.387 3.60694 20.155 3.6944 19.9169 3.78187C19.3246 3.9693 18.8545 4.50661 18.8545 5.28759C18.8545 6.41843 19.9413 6.7933 20.674 7.11818L21.9501 7.71173C22.2554 7.86167 22.5485 8.02411 22.8293 8.2053C23.8917 8.88006 24.7404 9.78598 25.1861 11.2105C25.2838 11.5291 25.4914 12.2851 25.4914 13.2035C25.4914 13.7158 25.4181 14.7592 24.8869 15.9463L24.5206 16.646C23.7757 17.8769 22.7377 18.5766 21.7486 18.9765C21.7303 18.9827 21.7181 18.989 21.6998 18.9952L29.6067 18.9765V18.9702H31.53V18.9577C32.4397 18.9515 32.9892 18.8703 33.4166 18.7953C35.1873 18.5579 36.8664 17.9893 38.0936 16.3711C38.9423 15.2403 39.5162 13.7658 39.5162 10.7169V0.039457H34.2653Z" fill="#002E6E"/>
</svg>
