<svg width="205" height="31" viewBox="0 0 205 31" fill="none" xmlns="http://www.w3.org/2000/svg">
<path d="M22.2752 31.0004V30.9902L20.5418 31.0004H22.2752Z" fill="#002E6E"/>
<path d="M30.1852 19.1033L28.7207 18.4408C28.3721 18.2675 27.1367 17.7476 26.0509 16.9015C25.8715 16.7689 25.7022 16.6262 25.5328 16.4937C22.6538 14.0574 22.3051 11.0196 22.3051 9.31721C22.3051 6.80952 23.1519 4.40376 24.696 2.59944C24.965 2.28343 25.2439 2.0082 25.5328 1.74316C26.3896 0.968426 27.2961 0.417958 28.1927 0.0407843L25.5328 0.030596V0H16.8559V11.0706H8.63714V0H0V30.9894H8.63714V18.4815H16.8559V30.9894H20.3326H20.5319H22.2653L22.3051 23.2421C22.6538 23.5479 22.9925 23.9047 23.381 24.1595C23.65 24.3532 24.447 24.8119 25.5328 25.1177C26.6287 25.4337 28.0333 25.5969 29.4978 25.1891C29.7269 25.1279 31.8389 24.6998 32.7653 23.3134C32.8749 23.1503 32.9944 22.7018 32.9944 22.1207C32.9944 21.9475 32.9944 21.5499 32.845 21.1115C32.3868 19.9392 31.1515 19.5009 30.1852 19.1033Z" fill="#002E6E"/>
<path d="M55.9073 0.0609851V17.8391C55.9073 18.7973 55.9073 19.5517 55.6682 20.4691C55.5885 20.8565 55.3992 21.5191 54.8115 22.3142C54.2337 23.0584 53.347 23.8433 51.4542 23.8433C48.6349 23.8433 47.5491 22.1307 47.1307 20.775C46.7919 19.674 46.7521 18.5323 46.7521 16.1571V0.0507812H40.2468V0.0915655V8.15492C39.8583 7.79813 39.4798 7.45155 39.0913 7.14573C38.7426 6.89089 38.0851 6.51371 37.2483 6.21809C36.2122 5.84091 34.9072 5.57588 33.642 5.81034C33.2634 5.88169 32.8849 6.0244 32.4963 6.16711C31.53 6.47293 30.7629 7.34961 30.7629 8.62384C30.7629 10.4689 32.5362 11.0806 33.7317 11.6106L35.8137 12.5791C36.3118 12.8237 36.79 13.0888 37.2483 13.3844C38.9817 14.4853 40.3664 15.9634 41.0936 18.2876C41.253 18.8075 41.5917 20.041 41.5917 21.5395C41.5917 22.3754 41.4722 24.0778 40.6055 26.0146L40.0078 27.1563C38.7924 29.1645 37.0988 30.3062 35.485 30.9587C35.4551 30.9688 35.4352 30.979 35.4053 30.9892L48.3062 30.9587V30.9484H51.4443V30.9281C52.9286 30.9179 53.8252 30.7853 54.5225 30.663C57.4116 30.2757 60.1511 29.348 62.1535 26.7078C63.5382 24.8627 64.4747 22.4569 64.4747 17.4823V0.0609851H55.9073Z" fill="#002E6E"/>
<path d="M112.791 16.4218C107.471 16.4218 103.158 19.2251 103.158 22.6706C103.158 26.1264 107.471 28.9195 112.791 28.9195C118.111 28.9195 122.434 26.1162 122.434 22.6706C122.424 19.2251 118.111 16.4218 112.791 16.4218ZM112.791 25.2497C110.211 25.2497 108.119 24.0978 108.119 22.6706C108.119 21.2435 110.211 20.0916 112.791 20.0916C115.371 20.0916 117.463 21.2435 117.463 22.6706C117.463 24.0978 115.371 25.2497 112.791 25.2497ZM117.822 5.41239H113.608V9.40839H117.822V16.2179H122.424V3.36341H117.822V5.41239ZM106.923 10.9782C108.517 13.1597 110.759 14.9029 113.408 15.9733L115.71 12.6093C112.044 11.2433 109.314 7.95066 109.314 4.09737V3.35322H104.522V4.09737C104.522 7.95066 101.793 11.2433 98.1266 12.6093L100.438 15.9733C103.088 14.9029 105.329 13.1597 106.923 10.9782ZM144.759 10.6928H143.683V3.35322H139.619V18.3586H131.34V8.68462H138.164V4.49493H126.708V22.5789H139.609V27.7676H143.673V14.9335H144.749V27.7472H148.953V3.34303H144.749V10.6928H144.759ZM196.154 22.3138V12.6093H191.601V22.3138H189.379V12.6093H184.807V22.3138H180.732V26.5035H205V22.3138H196.154ZM198.545 21.2129H203.147V4.02602H182.516V8.21571H198.545V21.2129ZM78.7703 17.5737C82.6954 17.5737 85.8733 14.7704 85.8733 11.3045C85.8733 10.1729 85.5346 9.11277 84.9368 8.19532H86.7499V4.25029H81.2409V2.05859H76.3993V4.25029H70.8704V8.19532H72.6237C72.0259 9.11277 71.6873 10.1729 71.6873 11.3045C71.6773 14.7704 74.8552 17.5737 78.7703 17.5737ZM78.7703 8.94967C80.3144 8.94967 81.5696 10.0506 81.5696 11.4166C81.5696 12.7826 80.3144 13.8835 78.7703 13.8835C77.2262 13.8835 75.9709 12.7826 75.9709 11.4166C75.9809 10.0506 77.2262 8.94967 78.7703 8.94967ZM160.848 17.115C164.773 17.115 167.951 14.4136 167.951 11.0802C167.951 10.0404 167.642 9.0516 167.084 8.19532H168.828V4.25029H163.319V2.05859H158.477V4.25029H152.948V8.19532H154.622C154.074 9.0516 153.755 10.0302 153.755 11.0802C153.745 14.4136 156.923 17.115 160.848 17.115ZM160.848 9.03121C162.392 9.03121 163.647 9.98943 163.647 11.1821C163.647 12.3748 162.392 13.333 160.848 13.333C159.304 13.333 158.049 12.3748 158.049 11.1821C158.049 9.98943 159.304 9.03121 160.848 9.03121ZM77.6645 18.8173H73.062V27.7472H93.843V23.5677H77.6645V18.8173ZM93.6636 3.35322H89.0512V20.2751H93.6636V13.4554H96.7618V9.2351H93.6636V3.35322ZM155.349 22.1304H171.079V27.7778H175.682V17.9407H155.349V22.1304ZM175.682 3.34303H171.079V16.5849H175.682V11.2637H178.78V7.07398H175.682V3.34303Z" fill="#002E6E"/>
</svg>
