<svg width="65" height="65" viewBox="0 0 65 65" fill="none" xmlns="http://www.w3.org/2000/svg">
<circle cx="32.5" cy="32.5" r="32.5" fill="#F5F7F8"/>
<ellipse cx="50.1812" cy="39.2721" rx="7.97881" ry="7.97881" fill="#E4EFFD"/>
<ellipse cx="13.9788" cy="39.2721" rx="7.97881" ry="7.97881" fill="#E4EFFD"/>
<ellipse cx="25.5302" cy="33.556" rx="1.7863" ry="2.26265" fill="#005FE2"/>
<ellipse cx="38.6298" cy="33.556" rx="1.7863" ry="2.26265" fill="#005FE2"/>
<path d="M44.789 38.4664C45.2338 38.0534 45.9292 38.0791 46.3423 38.5238C46.7554 38.9687 46.7298 39.6646 46.2849 40.0777C45.038 41.2355 41.6075 43.4678 37.4387 43.4678C34.6463 43.4677 32.7025 42.4642 31.513 41.3788C30.6203 42.4829 28.9595 43.4017 26.2717 43.4673C22.1508 43.5678 19.3886 42.2623 18.3917 41.4228C17.9273 41.0317 17.8675 40.3381 18.2585 39.8737C18.6496 39.4094 19.3432 39.3502 19.8076 39.7412C20.3191 40.1719 22.5268 41.3593 26.218 41.2693C29.4569 41.1903 30.069 39.7134 30.1384 39.3112L30.1636 39.1985C30.3104 38.6538 30.7822 38.4204 31.0809 38.3655C31.3798 38.3106 31.9134 38.3611 32.243 38.8303L32.3063 38.9301L32.3992 39.0788C32.9298 39.8672 34.4682 41.2692 37.4387 41.2693C40.8914 41.2693 43.8128 39.3728 44.789 38.4664Z" fill="#005FE2"/>
<path d="M35.7628 19.0058C37.0214 19.0628 38.28 19.5426 39.1346 20.309C39.5964 20.7232 39.9949 21.2724 40.1443 21.9418C40.2907 22.5984 40.1733 23.269 39.804 23.8795L39.7267 24.0008C39.266 24.6893 38.5426 24.9676 37.8985 25.0609C37.2577 25.1536 36.5593 25.0875 35.9077 24.9642C35.6817 24.9215 35.453 24.8699 35.2239 24.8118C35.2765 25.0491 35.3019 25.3017 35.2802 25.5643C35.2312 26.159 34.9559 26.6964 34.4762 27.1182C33.1878 28.2511 31.2403 28.2316 29.7109 27.9271C28.2239 27.631 26.7 26.983 25.7272 26.21L25.5404 26.0538C23.6491 24.3909 22.8073 22.0148 22.5716 20.5119L22.5324 20.2231L22.5255 20.111C22.5188 19.5539 22.9353 19.0712 23.5007 19.0069C24.0662 18.9427 24.5803 19.3196 24.6988 19.8641L24.717 19.9752L24.7471 20.1931C24.929 21.3326 25.5962 23.1753 26.9923 24.4028L27.1093 24.5C27.7312 24.989 28.8932 25.5227 30.1403 25.771C31.5274 26.0471 32.5517 25.8826 33.0243 25.4672C33.071 25.4261 33.0839 25.4016 33.0855 25.3985C33.0866 25.3963 33.0884 25.3943 33.0892 25.384C33.0918 25.3526 33.0861 25.2438 32.9867 25.0405C32.8065 24.6721 32.444 24.2465 32.0259 23.8628L31.8434 23.7013C31.5135 23.4185 31.434 23.0426 31.4425 22.7861C31.4505 22.5435 31.5316 22.3436 31.6175 22.2016C31.7028 22.0606 31.8448 21.8914 32.0646 21.7701C32.2868 21.6474 32.6385 21.5563 33.0157 21.6949L33.0914 21.7255L33.4521 21.8828C34.3228 22.2517 35.3812 22.6274 36.3167 22.8044C36.8553 22.9063 37.2835 22.9283 37.5834 22.8849C37.7279 22.864 37.8134 22.832 37.8577 22.8087C37.8785 22.7977 37.889 22.7892 37.8931 22.7856C37.8969 22.7823 37.8982 22.7801 37.8996 22.7781L37.9393 22.7142C38.0187 22.572 38.0122 22.4826 37.9983 22.4206C37.9757 22.319 37.8926 22.1483 37.6666 21.9456C37.2314 21.5553 36.4746 21.2401 35.6726 21.2022L35.5116 21.1984L35.3989 21.1925C34.8446 21.1361 34.4123 20.6683 34.4123 20.0992C34.4123 19.492 34.9045 18.9999 35.5116 18.9999L35.7628 19.0058Z" fill="#005FE2"/>
</svg>
