<svg width="20" height="20" viewBox="0 0 20 20" fill="none" xmlns="http://www.w3.org/2000/svg">
<g opacity="0.7" clip-path="url(#clip0_182_768)">
<path d="M12.9386 3.2197C12.9386 2.82222 12.6164 2.5 12.2189 2.5H3.99123C3.17105 2.5 2.5 3.14773 2.5 3.93939V13.2695C2.5 13.6813 2.83382 14.0152 3.24561 14.0152C3.65741 14.0152 3.99123 13.6813 3.99123 13.2695V4.38384C3.99123 4.13838 4.19021 3.93939 4.43567 3.93939H12.2189C12.6164 3.93939 12.9386 3.61717 12.9386 3.2197ZM15.1754 5.37879H6.97368C6.15351 5.37879 5.48246 6.02652 5.48246 6.81818V16.8939C5.48246 17.6856 6.15351 18.3333 6.97368 18.3333H15.1754C15.9956 18.3333 16.6667 17.6856 16.6667 16.8939V6.81818C16.6667 6.02652 15.9956 5.37879 15.1754 5.37879ZM15.2412 16.4116C15.2412 16.6571 15.0422 16.8561 14.7968 16.8561H7.35234C7.10688 16.8561 6.90789 16.6571 6.90789 16.4116V7.30051C6.90789 7.05505 7.10688 6.85606 7.35234 6.85606H14.7968C15.0422 6.85606 15.2412 7.05505 15.2412 7.30051V16.4116Z" fill="#002E6E"/>
</g>
<defs>
<clipPath id="clip0_182_768">
<rect width="20" height="20" fill="white"/>
</clipPath>
</defs>
</svg>
