<svg width="20" height="20" viewBox="0 0 20 20" fill="none" xmlns="http://www.w3.org/2000/svg">
<g opacity="0.7" clip-path="url(#clip0_182_788)">
<path d="M10.4445 5.01453C10.1995 4.99842 9.99992 4.80097 9.99992 4.55551V2.73961C9.99992 2.34365 9.52119 2.14536 9.2412 2.42534L6.46179 5.20475C6.11466 5.55189 6.11466 6.1147 6.46179 6.46183L9.24121 9.24125C9.52119 9.52123 9.99992 9.32293 9.99992 8.92698V7.11107C9.99992 6.86561 10.1996 6.66456 10.4441 6.68615C12.9949 6.91141 14.9999 9.05796 14.9999 11.6666C14.9999 14.425 12.7583 16.6666 9.99992 16.6666C7.52424 16.6666 5.46476 14.8608 5.06868 12.4964C4.99264 12.0425 4.62682 11.6666 4.16659 11.6666C3.70635 11.6666 3.32779 12.0416 3.38457 12.4983C3.79361 15.7888 6.59825 18.3333 9.99992 18.3333C13.6833 18.3333 16.6666 15.35 16.6666 11.6666C16.6666 8.13267 13.9203 5.24309 10.4445 5.01453Z" fill="#002E6E"/>
</g>
<defs>
<clipPath id="clip0_182_788">
<rect width="20" height="20" fill="white"/>
</clipPath>
</defs>
</svg>
