<svg width="20" height="20" viewBox="0 0 20 20" fill="none" xmlns="http://www.w3.org/2000/svg">
<g opacity="0.7" clip-path="url(#clip0_182_801)">
<path d="M2.8 12.6667C3.24183 12.6667 3.6 13.0249 3.6 13.4667V15.2681C3.6 15.7591 3.99797 16.157 4.48889 16.157H15.5111C16.002 16.157 16.4 15.7591 16.4 15.2681V13.903C16.4 13.4612 16.7582 13.103 17.2 13.103C17.6418 13.103 18 13.4612 18 13.903V16.1244C18 17.1063 17.2041 17.9022 16.2222 17.9022H3.77778C2.79594 17.9022 2 17.1063 2 16.1244V13.4667C2 13.0249 2.35817 12.6667 2.8 12.6667ZM13.9173 6.30589C14.2471 6.59359 14.3016 7.08591 14.0427 7.4388C13.751 7.83658 13.1814 7.89963 12.8097 7.57528L11.5398 6.46706C11.2518 6.21582 10.8021 6.42098 10.8031 6.8031L10.8211 13.6424C10.8223 14.085 10.4638 14.4445 10.0211 14.4445C9.58011 14.4445 9.22228 14.0876 9.22112 13.6466L9.20307 6.79627C9.20206 6.41525 8.75348 6.21205 8.4664 6.46257L7.1913 7.57528C6.81962 7.89963 6.25001 7.83658 5.95825 7.4388C5.69942 7.08591 5.75395 6.59359 6.08373 6.30589L9.41615 3.3987C9.75097 3.10661 10.25 3.10661 10.5848 3.3987L13.9173 6.30589Z" fill="#002E6E"/>
</g>
<defs>
<clipPath id="clip0_182_801">
<rect width="20" height="20" fill="white"/>
</clipPath>
</defs>
</svg>
