<svg width="20" height="20" viewBox="0 0 20 20" fill="none" xmlns="http://www.w3.org/2000/svg">
<g opacity="0.7" clip-path="url(#clip0_182_778)">
<path d="M12.2728 3.33337H5.45463C4.82584 3.33337 4.28796 3.70837 4.06069 4.24837L1.77281 9.53587C1.70463 9.70837 1.66675 9.88837 1.66675 10.0834V11.5834C1.66675 12.4084 2.34857 13.0834 3.1819 13.0834H7.9622L7.24251 16.5109L7.21978 16.7509C7.21978 17.0584 7.34857 17.3434 7.55311 17.5459L7.73081 17.7201C8.07766 18.0603 8.63333 18.059 8.97856 17.7172L13.3486 13.3909C13.6213 13.1209 13.788 12.7459 13.788 12.3334V4.83337C13.788 4.00837 13.1061 3.33337 12.2728 3.33337ZM12.2728 11.9626C12.2728 12.1999 12.1779 12.4273 12.0093 12.5943L8.98493 15.5884L9.71942 12.6907C9.86179 12.1289 9.43726 11.5834 8.85777 11.5834H4.07079C3.57987 11.5834 3.1819 11.1854 3.1819 10.6945V10.2675C3.1819 10.146 3.2068 10.0259 3.25505 9.91438L5.2227 5.36913C5.36349 5.0439 5.68403 4.83337 6.03843 4.83337H11.3839C11.8748 4.83337 12.2728 5.23134 12.2728 5.72226V11.9626ZM15.3031 4.22226C15.3031 3.73134 15.7011 3.33337 16.192 3.33337H17.4445C17.9354 3.33337 18.3334 3.73134 18.3334 4.22226V11.4445C18.3334 11.9354 17.9354 12.3334 17.4445 12.3334H16.192C15.7011 12.3334 15.3031 11.9354 15.3031 11.4445V4.22226Z" fill="#002E6E"/>
</g>
<defs>
<clipPath id="clip0_182_778">
<rect width="20" height="20" fill="white"/>
</clipPath>
</defs>
</svg>
