<svg width="20" height="20" viewBox="0 0 20 20" fill="none" xmlns="http://www.w3.org/2000/svg">
<g opacity="0.7" clip-path="url(#clip0_182_773)">
<path d="M7.72735 17.5H14.5455C15.1743 17.5 15.7122 17.125 15.9395 16.585L18.2274 11.2975C18.2955 11.125 18.3334 10.945 18.3334 10.75V9.25C18.3334 8.425 17.6516 7.75 16.8183 7.75H12.038L12.7577 4.3225L12.7804 4.0825C12.7804 3.775 12.6516 3.49 12.4471 3.2875L12.2694 3.11324C11.9225 2.7731 11.3668 2.77441 11.0216 3.11619L6.6516 7.4425C6.37887 7.7125 6.2122 8.0875 6.2122 8.5V16C6.2122 16.825 6.89402 17.5 7.72735 17.5ZM7.72735 8.87081C7.72735 8.63351 7.82224 8.40607 7.99087 8.23912L11.0152 5.245L10.2807 8.14271C10.1384 8.70443 10.5629 9.25 11.1424 9.25H15.9294C16.4203 9.25 16.8183 9.64797 16.8183 10.1389V10.5659C16.8183 10.6873 16.7934 10.8075 16.7451 10.919L14.7775 15.4642C14.6367 15.7895 14.3161 16 13.9617 16H8.61624C8.12532 16 7.72735 15.602 7.72735 15.1111V8.87081ZM1.66675 9.38889C1.66675 8.89797 2.06472 8.5 2.55564 8.5H3.80816C4.29908 8.5 4.69705 8.89797 4.69705 9.38889V16.6111C4.69705 17.102 4.29908 17.5 3.80816 17.5H2.55564C2.06472 17.5 1.66675 17.102 1.66675 16.6111V9.38889Z" fill="#002E6E"/>
</g>
<defs>
<clipPath id="clip0_182_773">
<rect width="20" height="20" fill="white"/>
</clipPath>
</defs>
</svg>
