<svg width="20" height="20" viewBox="0 0 20 20" fill="none" xmlns="http://www.w3.org/2000/svg">
<g opacity="0.7" clip-path="url(#clip0_182_783)">
<path d="M1.99997 6.85652C1.50905 6.85652 1.11108 7.25449 1.11108 7.74541V13.145C1.11108 13.636 1.50905 14.0339 1.99997 14.0339H5.91204L10.5342 17.0889C11.1252 17.4795 11.9132 17.0557 11.9132 16.3474V4.54247C11.9132 3.83408 11.1251 3.4103 10.5341 3.80096L5.91204 6.85652H1.99997ZM10.3971 6.41503V14.4746L7.02497 12.3519H2.62721V8.53856H7.02497L10.3971 6.41503ZM16.0316 10.4447C16.0316 9.45613 15.6747 8.55811 15.0879 7.87501C14.6539 7.36967 13.9503 7.76748 13.9503 8.43365V12.4561C13.9503 13.1201 14.6502 13.5184 15.0844 13.016C15.6733 12.3348 16.0316 11.4352 16.0316 10.4447ZM15.0164 3.22842C14.4864 3.01376 13.9503 3.43718 13.9503 4.00908C13.9503 4.39846 14.2075 4.73596 14.5639 4.89283C16.6491 5.81067 18.1128 7.9518 18.1128 10.4447C18.1128 12.9375 16.6491 15.0787 14.5639 15.9965C14.2075 16.1534 13.9503 16.4909 13.9503 16.8802C13.9503 17.4522 14.4864 17.8756 15.0164 17.6609C17.8049 16.5318 19.7778 13.7272 19.7778 10.4447C19.7778 7.16213 17.8049 4.35755 15.0164 3.22842Z" fill="#002E6E"/>
</g>
<defs>
<clipPath id="clip0_182_783">
<rect width="20" height="20" fill="white"/>
</clipPath>
</defs>
</svg>
