<svg width="27" height="27" viewBox="0 0 27 27" fill="none" xmlns="http://www.w3.org/2000/svg">
<g clip-path="url(#clip0_82_6708)">
<path d="M22.0175 11.9092L12.8693 21.0574C11.1112 22.8154 8.26336 22.8154 6.50532 21.0574C4.74727 19.2993 4.74727 16.4515 6.50532 14.6934L16.449 4.74973C17.5468 3.65195 19.3287 3.65195 20.4265 4.74973C21.5243 5.84752 21.5243 7.62943 20.4265 8.72721L12.0738 17.0799C11.6363 17.5174 10.9203 17.5174 10.4828 17.0799C10.0453 16.6424 10.0453 15.9264 10.4828 15.4889L18.04 7.93172L16.8468 6.73847L9.28955 14.2957C8.19177 15.3935 8.19177 17.1754 9.28955 18.2732C10.3873 19.3709 12.1692 19.3709 13.267 18.2732L21.6197 9.92045C23.3778 8.16241 23.3778 5.31454 21.6197 3.55649C19.8617 1.79845 17.0138 1.79845 15.2558 3.55649L5.31207 13.5002C2.89377 15.9185 2.89377 19.8323 5.31207 22.2506C7.73038 24.6689 11.6442 24.6689 14.0625 22.2506L23.2107 13.1024L22.0175 11.9092Z" fill="#004098"/>
</g>
<defs>
<clipPath id="clip0_82_6708">
<rect width="27" height="27" fill="white"/>
</clipPath>
</defs>
</svg>
