<svg width="24" height="24" viewBox="0 0 24 24" fill="none" xmlns="http://www.w3.org/2000/svg">
<g clip-path="url(#clip0_124_1173)">
<path d="M13.1429 2C7.69952 2 3.28571 6.47778 3.28571 12H0L4.38095 16.4333L8.7619 12H5.47619C5.47619 7.7 8.90429 4.22222 13.1429 4.22222C17.3814 4.22222 20.8095 7.7 20.8095 12C20.8095 16.3 17.3814 19.7778 13.1429 19.7778C11.029 19.7778 9.11238 18.9 7.73238 17.4889L6.17714 19.0667C7.96238 20.8778 10.4157 22 13.1429 22C18.5862 22 23 17.5222 23 12C23 6.47778 18.5862 2 13.1429 2ZM12.0476 7.55556V13.1111L16.7024 15.9111L17.5457 14.4889L13.6905 12.1667V7.55556H12.0476Z" fill="#004098"/>
</g>
<defs>
<clipPath id="clip0_124_1173">
<rect width="24" height="24" fill="white"/>
</clipPath>
</defs>
</svg>
