<svg width="24" height="24" viewBox="0 0 24 24" fill="none" xmlns="http://www.w3.org/2000/svg">
<g clip-path="url(#clip0_124_1136)">
<path d="M15.8243 14.1938H14.9661L14.6619 13.9005C15.7265 12.6621 16.3675 11.0543 16.3675 9.30532C16.3675 5.40538 13.2062 2.24414 9.30629 2.24414C5.40635 2.24414 2.24512 5.40538 2.24512 9.30532C2.24512 13.2053 5.40635 16.3665 9.30629 16.3665C11.0553 16.3665 12.6631 15.7256 13.9015 14.661L14.1948 14.9651V15.8233L19.6265 21.2441L21.2451 19.6255L15.8243 14.1938ZM9.30629 14.1938C6.60132 14.1938 4.41779 12.0103 4.41779 9.30532C4.41779 6.60034 6.60132 4.41681 9.30629 4.41681C12.0113 4.41681 14.1948 6.60034 14.1948 9.30532C14.1948 12.0103 12.0113 14.1938 9.30629 14.1938Z" fill="#004098"/>
</g>
<defs>
<clipPath id="clip0_124_1136">
<rect width="24" height="24" fill="white"/>
</clipPath>
</defs>
</svg>
