<svg width="26" height="26" viewBox="0 0 26 26" fill="none" xmlns="http://www.w3.org/2000/svg">
<g clip-path="url(#clip0_124_1169)">
<path fill-rule="evenodd" clip-rule="evenodd" d="M21.1251 12.9993C21.1251 13.3677 21.0926 13.7143 21.0492 14.061L23.3351 15.8485C23.5409 16.011 23.5951 16.3035 23.4651 16.5418L21.2984 20.2902C21.2009 20.4635 21.0167 20.561 20.8326 20.561C20.7676 20.561 20.7026 20.5502 20.6376 20.5285L17.9401 19.4452C17.3767 19.8677 16.7701 20.236 16.1092 20.5068L15.6976 23.3777C15.6651 23.6377 15.4376 23.8327 15.1667 23.8327H10.8334C10.5626 23.8327 10.3351 23.6377 10.3026 23.3777L9.8909 20.5068C9.23007 20.236 8.6234 19.8785 8.06007 19.4452L5.36257 20.5285C5.3084 20.5502 5.2434 20.561 5.1784 20.561C4.9834 20.561 4.79924 20.4635 4.70174 20.2902L2.53507 16.5418C2.40507 16.3035 2.45924 16.011 2.66507 15.8485L4.9509 14.061C4.90757 13.7143 4.87507 13.3568 4.87507 12.9993C4.87507 12.6418 4.90757 12.2843 4.9509 11.9377L2.66507 10.1502C2.45924 9.98768 2.39424 9.69518 2.53507 9.45685L4.70174 5.70852C4.79924 5.53518 4.9834 5.43768 5.16757 5.43768C5.23257 5.43768 5.29757 5.44852 5.36257 5.47018L8.06007 6.55352C8.6234 6.13102 9.23007 5.76268 9.8909 5.49185L10.3026 2.62102C10.3351 2.36102 10.5626 2.16602 10.8334 2.16602H15.1667C15.4376 2.16602 15.6651 2.36102 15.6976 2.62102L16.1092 5.49185C16.7701 5.76268 17.3767 6.12018 17.9401 6.55352L20.6376 5.47018C20.6917 5.44852 20.7567 5.43768 20.8217 5.43768C21.0167 5.43768 21.2009 5.53518 21.2984 5.70852L23.4651 9.45685C23.5951 9.69518 23.5409 9.98768 23.3351 10.1502L21.0492 11.9377C21.0926 12.2843 21.1251 12.631 21.1251 12.9993ZM10.8334 12.9993C10.8334 14.191 11.8084 15.166 13.0001 15.166C14.1917 15.166 15.1667 14.191 15.1667 12.9993C15.1667 11.8077 14.1917 10.8327 13.0001 10.8327C11.8084 10.8327 10.8334 11.8077 10.8334 12.9993Z" fill="#004098"/>
</g>
<defs>
<clipPath id="clip0_124_1169">
<rect width="26" height="26" fill="white"/>
</clipPath>
</defs>
</svg>
