<svg width="24" height="24" viewBox="0 0 24 24" fill="none" xmlns="http://www.w3.org/2000/svg">
<g clip-path="url(#clip0_159_4335)">
<path d="M17.3333 15.6838C16.6578 15.6838 16.0533 15.9549 15.5911 16.3796L9.25333 12.6296C9.29778 12.4218 9.33333 12.2139 9.33333 11.9971C9.33333 11.7802 9.29778 11.5724 9.25333 11.3646L15.52 7.6507C16 8.1025 16.6311 8.38262 17.3333 8.38262C18.8089 8.38262 20 7.17178 20 5.67178C20 4.17178 18.8089 2.96094 17.3333 2.96094C15.8578 2.96094 14.6667 4.17178 14.6667 5.67178C14.6667 5.88865 14.7022 6.09648 14.7467 6.30431L8.48 10.0182C8 9.56636 7.36889 9.28624 6.66667 9.28624C5.19111 9.28624 4 10.4971 4 11.9971C4 13.4971 5.19111 14.7079 6.66667 14.7079C7.36889 14.7079 8 14.4278 8.48 13.976L14.8089 17.735C14.7644 17.9248 14.7378 18.1236 14.7378 18.3224C14.7378 19.7772 15.9022 20.9609 17.3333 20.9609C18.7644 20.9609 19.9289 19.7772 19.9289 18.3224C19.9289 16.8676 18.7644 15.6838 17.3333 15.6838ZM17.3333 4.76817C17.8222 4.76817 18.2222 5.17479 18.2222 5.67178C18.2222 6.16877 17.8222 6.5754 17.3333 6.5754C16.8444 6.5754 16.4444 6.16877 16.4444 5.67178C16.4444 5.17479 16.8444 4.76817 17.3333 4.76817ZM6.66667 12.9007C6.17778 12.9007 5.77778 12.4941 5.77778 11.9971C5.77778 11.5001 6.17778 11.0935 6.66667 11.0935C7.15556 11.0935 7.55556 11.5001 7.55556 11.9971C7.55556 12.4941 7.15556 12.9007 6.66667 12.9007ZM17.3333 19.2441C16.8444 19.2441 16.4444 18.8374 16.4444 18.3405C16.4444 17.8435 16.8444 17.4368 17.3333 17.4368C17.8222 17.4368 18.2222 17.8435 18.2222 18.3405C18.2222 18.8374 17.8222 19.2441 17.3333 19.2441Z" fill="#002E6E"/>
</g>
<defs>
<clipPath id="clip0_159_4335">
<rect width="24" height="24" fill="white"/>
</clipPath>
</defs>
</svg>
