<svg width="24" height="24" viewBox="0 0 24 24" fill="none" xmlns="http://www.w3.org/2000/svg">
<g clip-path="url(#clip0_124_10528)">
<path d="M20.1818 4H3.81818C2.81818 4 2 4.9 2 6V19C2 20.1 2.81818 21 3.81818 21H20.1818C21.1818 21 22 20.1 22 19V6C22 4.9 21.1818 4 20.1818 4ZM3.81818 19V6H11.0909V19H3.81818ZM20.1818 19H12.9091V6H20.1818V19ZM13.8182 9.5H19.2727V11H13.8182V9.5ZM13.8182 12H19.2727V13.5H13.8182V12ZM13.8182 14.5H19.2727V16H13.8182V14.5Z" fill="#004098"/>
</g>
<defs>
<clipPath id="clip0_124_10528">
<rect width="24" height="24" fill="white"/>
</clipPath>
</defs>
</svg>
