<svg width="24" height="24" viewBox="0 0 24 24" fill="none" xmlns="http://www.w3.org/2000/svg">
<g clip-path="url(#clip0_124_10522)">
<path d="M11.9626 3.24134C11.6727 3.09012 11.3273 3.09012 11.0374 3.24134L1.69999 8.11305C0.983278 8.48699 0.983454 9.51268 1.7003 9.88637L4.18182 11.18V16.5739C4.18182 16.9464 4.38886 17.2881 4.71908 17.4604L11.0373 20.7585C11.3272 20.9098 11.6728 20.9098 11.9627 20.7585L18.2809 17.4604C18.6111 17.2881 18.8182 16.9464 18.8182 16.5739V11.18L20.178 10.4711C20.5108 10.2976 20.9091 10.5391 20.9091 10.9145V16C20.9091 16.5523 21.3568 17 21.9091 17H22C22.5523 17 23 16.5523 23 16V9.60618C23 9.23362 22.7929 8.89194 22.4626 8.7196L11.9626 3.24134ZM18.63 9L11.5 12.72L4.37 9L11.5 5.28L18.63 9ZM16.7273 15.99L11.5 18.72L6.27273 15.99V12.27L11.5 15L16.7273 12.27V15.99Z" fill="#004098"/>
</g>
<defs>
<clipPath id="clip0_124_10522">
<rect width="24" height="24" fill="white"/>
</clipPath>
</defs>
</svg>
