<svg width="24" height="24" viewBox="0 0 24 24" fill="none" xmlns="http://www.w3.org/2000/svg">
<g clip-path="url(#clip0_124_10542)">
<path d="M17.3333 15.6829C16.6578 15.6829 16.0533 15.9539 15.5911 16.3786L9.25333 12.6286C9.29778 12.4208 9.33333 12.213 9.33333 11.9961C9.33333 11.7792 9.29778 11.5714 9.25333 11.3636L15.52 7.64972C16 8.10153 16.6311 8.38165 17.3333 8.38165C18.8089 8.38165 20 7.1708 20 5.6708C20 4.1708 18.8089 2.95996 17.3333 2.95996C15.8578 2.95996 14.6667 4.1708 14.6667 5.6708C14.6667 5.88767 14.7022 6.0955 14.7467 6.30333L8.48 10.0172C8 9.56538 7.36889 9.28526 6.66667 9.28526C5.19111 9.28526 4 10.4961 4 11.9961C4 13.4961 5.19111 14.7069 6.66667 14.7069C7.36889 14.7069 8 14.4268 8.48 13.975L14.8089 17.7341C14.7644 17.9238 14.7378 18.1226 14.7378 18.3214C14.7378 19.7762 15.9022 20.96 17.3333 20.96C18.7644 20.96 19.9289 19.7762 19.9289 18.3214C19.9289 16.8666 18.7644 15.6829 17.3333 15.6829ZM17.3333 4.76719C17.8222 4.76719 18.2222 5.17382 18.2222 5.6708C18.2222 6.16779 17.8222 6.57442 17.3333 6.57442C16.8444 6.57442 16.4444 6.16779 16.4444 5.6708C16.4444 5.17382 16.8444 4.76719 17.3333 4.76719ZM6.66667 12.8997C6.17778 12.8997 5.77778 12.4931 5.77778 11.9961C5.77778 11.4991 6.17778 11.0925 6.66667 11.0925C7.15556 11.0925 7.55556 11.4991 7.55556 11.9961C7.55556 12.4931 7.15556 12.8997 6.66667 12.8997ZM17.3333 19.2431C16.8444 19.2431 16.4444 18.8365 16.4444 18.3395C16.4444 17.8425 16.8444 17.4359 17.3333 17.4359C17.8222 17.4359 18.2222 17.8425 18.2222 18.3395C18.2222 18.8365 17.8222 19.2431 17.3333 19.2431Z" fill="#004098"/>
</g>
<defs>
<clipPath id="clip0_124_10542">
<rect width="24" height="24" fill="white"/>
</clipPath>
</defs>
</svg>
